<svg xmlns="http://www.w3.org/2000/svg" width="82" height="82.058" viewBox="0 0 82 82.058">
  <g id="open-book" transform="translate(1 0.994)">
    <g id="Group_2" data-name="Group 2" transform="translate(0 0.006)">
      <path id="Path_17" data-name="Path 17" d="M75.312,42.754V35.319a2.344,2.344,0,0,0-2.344-2.344,70.7,70.7,0,0,0-13.621,1.243,21.161,21.161,0,0,0-8.8-5.095,16.406,16.406,0,1,0-21.1,0,21.164,21.164,0,0,0-8.8,5.095A70.714,70.714,0,0,0,7.031,32.975a2.344,2.344,0,0,0-2.344,2.344v7.435A7.042,7.042,0,0,0,0,49.382v4.688A7.042,7.042,0,0,0,4.687,60.7v7.435a2.344,2.344,0,0,0,2.344,2.344c12.255,0,22.317,2.9,31.669,9.138a2.351,2.351,0,0,0,2.6,0c9.351-6.234,19.414-9.138,31.669-9.138a2.344,2.344,0,0,0,2.344-2.344V60.7A7.042,7.042,0,0,0,80,54.069V49.382A7.043,7.043,0,0,0,75.312,42.754ZM28.281,16.569A11.719,11.719,0,1,1,40,28.288,11.811,11.811,0,0,1,28.281,16.569ZM7.031,56.413A2.346,2.346,0,0,1,4.687,54.07V49.382a2.344,2.344,0,1,1,4.687,0V54.07A2.346,2.346,0,0,1,7.031,56.413ZM37.656,73.458A58.641,58.641,0,0,0,9.375,65.822V60.7a7.042,7.042,0,0,0,4.687-6.628V49.382a7.042,7.042,0,0,0-4.687-6.628V37.7c11.013.316,19.865,2.909,28.281,8.268ZM40,41.9a55.7,55.7,0,0,0-13.636-6.268,16.44,16.44,0,0,1,8.948-2.66h9.375a16.44,16.44,0,0,1,8.948,2.66A55.7,55.7,0,0,0,40,41.9ZM70.625,65.822a58.644,58.644,0,0,0-28.281,7.636V45.966c8.417-5.359,17.268-7.954,28.281-8.27v5.058a7.042,7.042,0,0,0-4.687,6.628V54.07A7.042,7.042,0,0,0,70.625,60.7ZM75.312,54.07a2.344,2.344,0,1,1-4.687,0V49.382a2.344,2.344,0,1,1,4.687,0Z" transform="translate(0 -0.006)" fill="#fff" stroke="#fff" stroke-width="2"/>
    </g>
  </g>
</svg>
