<svg xmlns="http://www.w3.org/2000/svg" width="81" height="71" viewBox="0 0 81 71">
  <g id="reading-book" transform="translate(0.5 -45.5)">
    <path id="Path_10" data-name="Path 10" d="M2.344,116H77.656A2.426,2.426,0,0,0,80,113.5v-60A2.426,2.426,0,0,0,77.656,51C66.336,51,61.7,46,54.062,46,48.733,46,43.6,50.421,40,54.628,36.409,50.43,31.272,46,25.938,46c-7.631,0-12.275,5-23.594,5A2.426,2.426,0,0,0,0,53.5v60A2.426,2.426,0,0,0,2.344,116Zm2.344-5.067c10.4-.6,15.337-4.933,21.25-4.933,2.97,0,6.267,2.5,8.764,5H4.688Zm40.6.067c2.493-2.5,5.79-5,8.773-5,5.946,0,10.8,4.335,21.25,4.933V111Zm8.773-60c5.949,0,10.792,4.334,21.25,4.933v49.993C65.658,105.306,61.145,101,54.062,101c-4.368,0-8.5,2.936-11.719,6.11V59.361C44.489,56.542,49.623,51,54.062,51ZM25.938,51c4.421,0,9.568,5.546,11.719,8.364V107.11c-3.222-3.174-7.351-6.11-11.719-6.11-7.087,0-11.588,4.305-21.25,4.925V55.933C15.09,55.338,20.024,51,25.938,51Z" fill="#fff" stroke="#fff" stroke-width="1"/>
    <path id="Path_11" data-name="Path 11" d="M303.6,171.205h20.821a2.6,2.6,0,0,0,0-5.205H303.6a2.6,2.6,0,0,0,0,5.205Z" transform="translate(-255.25 -100.063)" fill="#fff" stroke="#fff" stroke-width="1"/>
    <path id="Path_12" data-name="Path 12" d="M303.6,231.205h20.821a2.6,2.6,0,0,0,0-5.205H303.6a2.6,2.6,0,1,0,0,5.205Z" transform="translate(-255.25 -150.095)" fill="#fff" stroke="#fff" stroke-width="1"/>
    <path id="Path_13" data-name="Path 13" d="M303.6,291.205h20.821a2.6,2.6,0,0,0,0-5.205H303.6a2.6,2.6,0,1,0,0,5.205Z" transform="translate(-255.25 -200.126)" fill="#fff" stroke="#fff" stroke-width="1"/>
    <path id="Path_14" data-name="Path 14" d="M63.6,171.205H84.423a2.6,2.6,0,1,0,0-5.205H63.6a2.6,2.6,0,1,0,0,5.205Z" transform="translate(-53.264 -100.063)" fill="#fff" stroke="#fff" stroke-width="1"/>
    <path id="Path_15" data-name="Path 15" d="M63.6,231.205H84.423a2.6,2.6,0,1,0,0-5.205H63.6a2.6,2.6,0,1,0,0,5.205Z" transform="translate(-53.264 -150.095)" fill="#fff" stroke="#fff" stroke-width="1"/>
    <path id="Path_16" data-name="Path 16" d="M84.423,286H63.6a2.6,2.6,0,1,0,0,5.205H84.423a2.6,2.6,0,1,0,0-5.205Z" transform="translate(-53.264 -200.126)" fill="#fff" stroke="#fff" stroke-width="1"/>
  </g>
</svg>
